#!OML:ASF E:/inclinewalkrobotboard/Project1/Captureday1/Session1/subject1.ASF
:FULLY-SPECIFIED
:DEGREES
76
root 0 0 0 13.490806833723886 18.727662131066012 -0.45609734866692975
lowerback 13.041282036202277 1.53101269131133 1.1068546464547944
upperback -3.657367997912348 1.8795032021750604 1.9695254238825048
thorax -10.594543256035747 0.99520027003606 1.5057749435437757
lowerneck -9.933726614578998 -1.6530012093459427 6.007372057367049
upperneck 24.699386653485128 -3.7279128654854268 -1.0430903628237718
head 10.640528577118731 -1.153695239829955 -1.7233110970845422
rclavicle 1.5290484444112247E-15 1.5479187086374169E-15
rhumerus -0.41227689783700017 1.5483822261652183 -68.7126128563488
rradius 70.49642152895528
rwrist -17.851145463884926
rhand -13.356763492678278 -18.69214328050276
rfingers 7.12501999999993
rthumb 12.751537006229693 -48.21912870996189
lclavicle 1.714062144677722E-15 7.926483528851693E-15
lhumerus -0.9114343167784602 -22.05018176616608 75.66701509565641
lradius 109.4343895085487
lwrist 5.765613530631906
lhand -19.467350057582628 12.399558737841925
lfingers 7.125019999999953
lthumb 6.7991530367335224 42.029753217102815
rfemur -16.279174067843755 7.0975034661712435 28.336556690860057
rtibia 20.922792962979265
rfoot -14.28206126573215 -16.060430002506884
rtoes -20.590488111927343
lfemur -38.04856857201484 -9.02294077145881 -20.71813716044508
ltibia 39.5580512208529
lfoot -17.68404752890574 -4.894493641965816
ltoes -33.9309835638551
77
root 0 0 0 13.202681366030783 30.269675659836693 0.3453144054718309
lowerback 13.199132861388204 4.084863432605417 3.9219288049102787
upperback -3.5112451530901945 5.649150901780622 2.4507287474664894
thorax -10.60876119845846 2.708680465487095 -0.09723932475665586
lowerneck -14.482163340560716 -7.4584480788278436 0.06412797660110847
upperneck 27.963541028019428 -13.002925305779096 5.791033836504293
head 11.660994728928678 -5.201537503271802 0.5922806353217613
rclavicle 4.793463932287564E-15 3.4904594203073572E-15
rhumerus 28.66556965616213 -1.8011077967251996 -66.37873162128814
rradius 50.86796370137915
rwrist -17.82577277193586
rhand -21.875693726544952 -25.659763430045285
rfingers 7.125020000000043
rthumb 4.552552311140371 -55.86776206394692
lclavicle -1.377465088458155E-16 7.486828427954685E-15
lhumerus 20.249674214560656 -34.3567380186539 75.24714574727417
lradius 133.47824114253456
lwrist 10.539453384310086
lhand -26.127975848710115 9.653406781336276
lfingers 7.125020000000022
lthumb 0.4390414886924674 39.72306957362587
rfemur -26.227267313845765 0.7241998912638881 32.62298293049251
rtibia 35.539175854431036
rfoot -12.372508588324454 -8.747473121852192
rtoes -27.574689696354252
lfemur -49.28178838747151 -9.86228148830014 -20.82249976591966
ltibia 46.86815302139109
lfoot -22.1028924516228 -11.397557016229984
ltoes -38.892357638604146
78
root 0 0 0 12.938157607648805 38.25494393711284 0.513051300965786
lowerback 13.819510800966018 4.864977827701226 4.459004332563536
upperback -3.6368043688794205 6.655595129707016 2.19650675743856
thorax -11.100958184751889 3.1770169906872616 -0.7590726260896572
lowerneck -15.663853847495169 -9.292178246227275 -2.579868699008782
upperneck 26.393253479570255 -15.441187401885607 6.827213980719472
head 11.30874684741467 -6.473340544659788 1.1243802233138767
rclavicle 3.0035225954861315E-15 4.947800018515021E-15
rhumerus 30.968173415587852 0.5605611280328553 -67.71785210254784
rradius 51.76839144015105
rwrist -19.68759030455204
rhand -24.309395238297043 -25.625523995827074
rfingers 7.125020000000024
rthumb 2.201289752077459 -56.021256758015035
lclavicle -4.202061204184312E-15 6.597931471446009E-15
lhumerus 24.380700529154247 -37.25278688696129 75.30608599502158
lradius 139.8749078909575
lwrist 10.909064644321234
lhand -29.799265898151205 9.179523120433906
lfingers 7.125019999999983
lthumb -3.097444407461211 39.464145094978925
rfemur -28.362859161878276 -3.1205371302246694 34.22501165484184
rtibia 41.299111622111944
rfoot -12.560702602399004 -4.855894178754946
rtoes -34.114289476131326
lfemur -51.2239327917188 -9.58569247458218 -20.7895170246193
ltibia 48.91565192226412
lfoot -23.013197188585302 -11.767633645655861
ltoes -40.613684599599104
79
root 0 0 0 12.733797187943635 37.44591363358629 0.3440832988236022
lowerback 13.844552998365657 4.7533006946176215 4.162457097819951
upperback -3.6743097047791187 6.463273219052016 2.115021768986648
thorax -11.162409843126238 3.096089901418177 -0.6463861113042959
lowerneck -15.57718575815665 -9.011676652887033 -2.0869565266558707
upperneck 26.796571338452036 -15.226916001999946 7.118723962708058
head 11.44901632977194 -6.277980368847605 1.1732583239110852
rclavicle 4.0554861457216455E-16 5.701751211653947E-15
rhumerus 32.32152577760399 7.184893488692591 -71.05627972061963
rradius 57.11907303045336
rwrist -21.989644103620225
rhand -25.742520930371615 -23.70197830601088
rfingers 7.12502000000003
rthumb 0.8234129880897854 -54.21424256977456
lclavicle -8.413981442647761E-15 4.939603319122916E-15
lhumerus 25.241819890441228 -37.31193403642501 75.05303243680788
lradius 141.99983379118757
lwrist 10.799553655471382
lhand -31.707552321344377 9.073749571452424
lfingers 7.1250199999999575
lthumb -4.936938079160258 39.46546727915655
rfemur -25.085154905519396 -3.5934186449637773 35.91693430521486
rtibia 39.01839320079546
rfoot -9.799140983639854 -4.807285539718189
rtoes -41.8609327380706
lfemur -49.37738176403968 -10.12341447682665 -19.93172222005633
ltibia 45.42149086679238
lfoot -25.65696102232956 -8.06887031632545
ltoes -42.56786357071118
80
root 0 0 0 12.432601468982046 36.668712960130016 0.09084382873713137
lowerback 13.97364133058747 4.580073274735538 4.000322525116977
upperback -3.6572921684374613 6.212713588754335 2.1585577537857974
thorax -11.198408931371725 2.9859995985980645 -0.4534922483622126
lowerneck -15.368049439852204 -8.82089058578767 -1.6334111696527147
upperneck 27.32885046131045 -15.107244630841471 7.425966026683071
head 11.623383850342567 -6.132146530795716 1.22006022959114
rclavicle 9.110199278773906E-16 6.776808434648299E-15
rhumerus 30.948614852379652 11.957699155766623 -74.20120110106016
rradius 57.685939388976436
rwrist -21.493198879838445
rhand -26.17406168475084 -22.030594605423858
rfingers 7.125020000000026
rthumb 0.4053059853828298 -52.57836121185048
lclavicle -8.28746856126524E-15 4.136475452083789E-15
lhumerus 25.152899426449743 -37.07605013154571 74.81852479372148
lradius 142.41545465260236
lwrist 10.236464596094223
lhand -32.76898625724744 8.897607003924524
lfingers 7.125019999999947
lthumb -5.962121085124007 39.34565699746042
rfemur -19.778816474305778 -3.2031481076962725 37.531855410977144
rtibia 34.766819965066134
rfoot -6.86908333798411 -5.945674370827016
rtoes -46.49477046202469
lfemur -44.61656292881433 -12.986719469473543 -19.220606608119986
ltibia 36.479203046726816
lfoot -29.42971028451257 -3.617455429034985
ltoes -44.08808791220762
